<svg width="24" height="24" viewBox="0 0 24 24" fill="none" xmlns="http://www.w3.org/2000/svg">
<path d="M18.1061 5.89391C17.7546 5.54244 17.1848 5.54244 16.8333 5.89391L12 10.7272L7.16674 5.89391C6.81527 5.54244 6.24542 5.54244 5.89395 5.89391C5.54247 6.24539 5.54247 6.81523 5.89394 7.16671L10.7272 12L5.89394 16.8333C5.54247 17.1847 5.54247 17.7546 5.89394 18.106C6.24542 18.4575 6.81527 18.4575 7.16674 18.106L12 13.2728L16.8333 18.106C17.1848 18.4575 17.7546 18.4575 18.1061 18.106C18.4576 17.7546 18.4576 17.1847 18.1061 16.8333L13.2728 12L18.1061 7.16671C18.4576 6.81523 18.4576 6.24539 18.1061 5.89391Z" fill="#2E292A"/>
</svg>
