<svg width="16" height="16" viewBox="0 0 16 16" fill="none" xmlns="http://www.w3.org/2000/svg">
<path d="M12.0707 3.92928C11.8364 3.69496 11.4565 3.69496 11.2222 3.92928L8.00002 7.15146L4.77784 3.92928C4.54352 3.69496 4.16362 3.69496 3.92931 3.92928C3.69499 4.16359 3.69499 4.54349 3.92931 4.7778L7.15149 7.99999L3.92931 11.2222C3.69499 11.4565 3.69499 11.8364 3.92931 12.0707C4.16362 12.305 4.54352 12.305 4.77784 12.0707L8.00002 8.84852L11.2222 12.0707C11.4565 12.305 11.8364 12.305 12.0707 12.0707C12.305 11.8364 12.305 11.4565 12.0707 11.2222L8.84855 7.99999L12.0707 4.7778C12.305 4.54349 12.305 4.16359 12.0707 3.92928Z" fill="#A6A6A6"/>
</svg>
