<svg width="16" height="16" viewBox="0 0 16 16" fill="none" xmlns="http://www.w3.org/2000/svg">
<g clip-path="url(#clip0)">
<path d="M7.25134 16.0001C8.3874 16.0001 9.40345 15.9121 10.2995 15.7363C11.1955 15.5604 11.956 15.3203 12.5811 15.0161C13.2062 14.7119 13.6827 14.3625 14.0107 13.968C14.3387 13.5735 14.5027 13.1552 14.5027 12.7131C14.5027 12.3328 14.3969 11.9799 14.1854 11.6543C13.9739 11.3287 13.6863 11.0351 13.3226 10.7737C12.959 10.5123 12.549 10.2877 12.0927 10.0999C11.6364 9.91214 11.161 9.7636 10.6667 9.65427C10.1723 9.54494 9.68984 9.48315 9.21925 9.46889V10.738C9.61854 10.7571 10.0309 10.8153 10.4563 10.9127C10.8818 11.0102 11.2775 11.1397 11.6435 11.3013C12.0095 11.4629 12.3066 11.6519 12.5348 11.8682C12.7629 12.0845 12.877 12.3209 12.877 12.5776C12.877 12.8866 12.7368 13.167 12.4563 13.419C12.1759 13.6709 11.7849 13.8896 11.2834 14.075C10.7819 14.2603 10.1878 14.4041 9.50089 14.5063C8.81402 14.6085 8.06417 14.6596 7.25134 14.6596C6.4385 14.6596 5.68865 14.6085 5.00178 14.5063C4.31491 14.4041 3.71955 14.2615 3.21568 14.0785C2.71182 13.8955 2.32204 13.6769 2.04634 13.4225C1.77065 13.1682 1.6328 12.8866 1.6328 12.5776C1.6328 12.3209 1.74569 12.0845 1.97148 11.8682C2.19727 11.6519 2.49317 11.4629 2.85918 11.3013C3.22519 11.1397 3.6221 11.0102 4.04991 10.9127C4.47772 10.8153 4.88889 10.7571 5.28342 10.738V9.46889C4.81759 9.48315 4.33749 9.54494 3.84314 9.65427C3.34878 9.7636 2.87344 9.91214 2.41711 10.0999C1.96078 10.2877 1.5508 10.5123 1.18717 10.7737C0.82353 11.0351 0.534759 11.3287 0.320856 11.6543C0.106952 11.9799 0 12.3328 0 12.7131C0 13.1552 0.165181 13.5735 0.495542 13.968C0.825904 14.3625 1.30362 14.7119 1.9287 15.0161C2.55377 15.3203 3.31432 15.5604 4.21034 15.7363C5.10636 15.9121 6.12002 16.0001 7.25134 16.0001H7.25134ZM7.25847 13.1908C7.33452 13.1908 7.41652 13.1183 7.50446 12.9733C7.59239 12.8284 7.67439 12.6204 7.75045 12.3495C7.8265 12.0785 7.8883 11.7517 7.93583 11.3691C7.98336 10.9864 8.00713 10.555 8.00713 10.0749V5.30491H6.50267V10.0749C6.50267 10.555 6.52644 10.9864 6.57398 11.3691C6.62151 11.7517 6.68449 12.0785 6.76292 12.3495C6.84136 12.6204 6.92454 12.8284 7.01248 12.9733C7.10042 13.1183 7.18241 13.1908 7.25847 13.1908H7.25847ZM7.25847 5.6828C7.78134 5.6828 8.25668 5.55446 8.68449 5.29777C9.1123 5.04109 9.45336 4.69766 9.70767 4.26747C9.96198 3.83729 10.0891 3.36313 10.0891 2.84501C10.0891 2.32214 9.96198 1.84561 9.70767 1.41542C9.45336 0.985235 9.1123 0.6418 8.68449 0.385118C8.25669 0.128433 7.78135 9.15527e-05 7.25847 9.15527e-05C6.73083 9.15527e-05 6.25431 0.128433 5.82888 0.385118C5.40344 0.641804 5.06357 0.985239 4.80927 1.41542C4.55496 1.84561 4.42781 2.32214 4.42781 2.84501C4.42781 3.36314 4.55496 3.83729 4.80927 4.26747C5.06357 4.69766 5.40344 5.04109 5.82888 5.29777C6.25431 5.55446 6.73083 5.6828 7.25847 5.6828ZM6.45276 3.00188C6.19608 3.00188 5.97029 2.90443 5.7754 2.70954C5.58051 2.51465 5.48307 2.28649 5.48307 2.02505C5.48307 1.76361 5.58051 1.53782 5.7754 1.34769C5.97029 1.15755 6.19608 1.06248 6.45276 1.06248C6.71895 1.06248 6.94712 1.15755 7.13726 1.34769C7.32739 1.53782 7.42246 1.76361 7.42246 2.02505C7.42246 2.28649 7.32739 2.51465 7.13726 2.70954C6.94712 2.90443 6.71895 3.00188 6.45276 3.00188Z" fill="black"/>
</g>
<defs>
<clipPath id="clip0">
<rect width="16" height="16" fill="white"/>
</clipPath>
</defs>
</svg>
