<svg width="16" height="16" viewBox="0 0 16 16" fill="none" xmlns="http://www.w3.org/2000/svg">
<g clip-path="url(#clip0)">
<path d="M2.11482 12.5679H2.61326V13.9351C2.61326 14.405 2.72719 14.748 2.95505 14.964C3.18291 15.18 3.52233 15.288 3.9733 15.288H12.0267C12.4777 15.288 12.8171 15.18 13.0449 14.964C13.2728 14.748 13.3867 14.405 13.3867 13.9351V12.5679H13.878C14.5711 12.5679 15.098 12.3935 15.4588 12.0446C15.8196 11.6956 16 11.1747 16 10.4816V4.68541C16 3.99233 15.8196 3.47016 15.4588 3.11888C15.098 2.7676 14.5711 2.59195 13.878 2.59195H2.11481C1.45972 2.59195 0.943472 2.7676 0.566081 3.11888C0.18869 3.47016 -7.62939e-06 3.99233 -7.62939e-06 4.68541V10.4816C-7.62939e-06 11.1747 0.180381 11.6956 0.541157 12.0446C0.901934 12.3935 1.42648 12.5679 2.11481 12.5679H2.11482ZM4.32933 14.2199C4.13944 14.2199 3.99703 14.1736 3.90209 14.081C3.80715 13.9885 3.75968 13.8449 3.75968 13.6503V8.07481C3.75968 7.88493 3.80715 7.7437 3.90209 7.65114C3.99703 7.55857 4.13944 7.51228 4.32933 7.51228H11.6778C11.8677 7.51228 12.0089 7.55857 12.1015 7.65114C12.194 7.7437 12.2403 7.88493 12.2403 8.07481V13.6503C12.2403 13.8449 12.194 13.9885 12.1015 14.081C12.0089 14.1736 11.8677 14.2199 11.6778 14.2199H4.32933ZM5.56831 12.5608H10.4459C10.5693 12.5608 10.6726 12.5193 10.7557 12.4362C10.8387 12.3531 10.8803 12.2522 10.8803 12.1336C10.8803 12.0101 10.8387 11.9045 10.7557 11.8167C10.6726 11.7289 10.5693 11.685 10.4459 11.685H5.56831C5.44014 11.685 5.33333 11.7289 5.24788 11.8167C5.16244 11.9045 5.11971 12.0101 5.11971 12.1336C5.11971 12.2522 5.16244 12.3531 5.24788 12.4362C5.33333 12.5193 5.44014 12.5608 5.56831 12.5608ZM5.56831 10.0757H10.4459C10.5693 10.0757 10.6726 10.033 10.7557 9.94754C10.8387 9.86209 10.8803 9.75765 10.8803 9.63423C10.8803 9.51081 10.8387 9.40756 10.7557 9.32449C10.6726 9.24141 10.5693 9.19987 10.4459 9.19987H5.56831C5.44014 9.19987 5.33333 9.24141 5.24788 9.32449C5.16244 9.40756 5.11971 9.51081 5.11971 9.63423C5.11971 9.75765 5.16244 9.86209 5.24788 9.94754C5.33333 10.033 5.44014 10.0757 5.56831 10.0757ZM2.81976 1.64492H13.1802V1.52387C13.1802 1.17259 13.096 0.884203 12.9275 0.658716C12.7589 0.43323 12.5263 0.267082 12.2296 0.160272C11.933 0.0534632 11.5923 6.10352e-05 11.2078 6.10352e-05H4.79218C4.42666 6.10352e-05 4.09436 0.0534632 3.7953 0.160272C3.49623 0.267081 3.25888 0.43323 3.08324 0.658716C2.9076 0.884203 2.81978 1.17259 2.81978 1.52387L2.81976 1.64492Z" fill="black"/>
</g>
<defs>
<clipPath id="clip0">
<rect width="16" height="16" fill="white"/>
</clipPath>
</defs>
</svg>
