<svg width="32" height="32" viewBox="0 0 32 32" fill="none" xmlns="http://www.w3.org/2000/svg">
<circle cx="16" cy="16" r="6" fill="white"/>
<path fill-rule="evenodd" clip-rule="evenodd" d="M22 16C22 19.3137 19.3137 22 16 22C12.6863 22 10 19.3137 10 16C10 12.6863 12.6863 10 16 10C19.3137 10 22 12.6863 22 16ZM13.6464 13.6464C13.8417 13.4512 14.1583 13.4512 14.3536 13.6464L16 15.2929L17.6464 13.6464C17.8417 13.4512 18.1583 13.4512 18.3536 13.6464C18.5488 13.8417 18.5488 14.1583 18.3536 14.3536L16.7071 16L18.3536 17.6464C18.5488 17.8417 18.5488 18.1583 18.3536 18.3536C18.1583 18.5488 17.8417 18.5488 17.6464 18.3536L16 16.7071L14.3536 18.3536C14.1583 18.5488 13.8417 18.5488 13.6464 18.3536C13.4512 18.1583 13.4512 17.8417 13.6464 17.6464L15.2929 16L13.6464 14.3536C13.4512 14.1583 13.4512 13.8417 13.6464 13.6464Z" fill="#A6A6A6"/>
</svg>
