<svg width="32" height="32" viewBox="0 0 32 32" fill="none" xmlns="http://www.w3.org/2000/svg">
<path d="M24.1414 7.85855C23.6728 7.38992 22.913 7.38992 22.4443 7.85855L16 14.3029L9.55561 7.85855C9.08698 7.38992 8.32718 7.38992 7.85855 7.85855C7.38992 8.32718 7.38992 9.08698 7.85855 9.55561L14.3029 16L7.85855 22.4443C7.38992 22.913 7.38992 23.6728 7.85855 24.1414C8.32718 24.61 9.08698 24.61 9.55561 24.1414L16 17.697L22.4443 24.1414C22.913 24.61 23.6728 24.61 24.1414 24.1414C24.61 23.6728 24.61 22.913 24.1414 22.4443L17.697 16L24.1414 9.55561C24.61 9.08698 24.61 8.32718 24.1414 7.85855Z" fill="#A6A6A6"/>
</svg>
