<svg width="32" height="32" viewBox="0 0 32 32" fill="none" xmlns="http://www.w3.org/2000/svg">
<path fill-rule="evenodd" clip-rule="evenodd" d="M8 16.1C8 16.1 10.5 20.8 16 20.8C21.5 20.8 24 16.1 24 16.1C24 16.1 21.5 11.4 16 11.4C10.5 11.4 8 16.1 8 16.1ZM9.7495 16.1C10.021 16.4593 10.4075 16.9112 10.9113 17.3622C12.0337 18.367 13.7014 19.34 16 19.34C18.2986 19.34 19.9663 18.367 21.0887 17.3622C21.5925 16.9112 21.979 16.4593 22.2505 16.1C21.979 15.7407 21.5925 15.2888 21.0887 14.8378C19.9663 13.8331 18.2986 12.86 16 12.86C13.7014 12.86 12.0337 13.8331 10.9113 14.8378C10.4075 15.2888 10.021 15.7407 9.7495 16.1Z" fill="#A3A3A3"/>
<path d="M18 16C18 17.1046 17.1046 18 16 18C14.8954 18 14 17.1046 14 16C14 14.8954 14.8954 14 16 14C17.1046 14 18 14.8954 18 16Z" fill="#A3A3A3"/>
</svg>
