<svg width="32" height="32" viewBox="0 0 32 32" fill="none" xmlns="http://www.w3.org/2000/svg">
<g clip-path="url(#clip0)">
<path d="M23.7407 15.7251C23.6722 15.6188 22.6536 14.0862 20.8116 12.8674L23.6472 10.0155L22.6372 9L8.72996 22.9845L9.73992 24L13.4155 20.3042C14.1961 20.5491 15.0568 20.7021 15.9996 20.7021C20.8594 20.7021 23.6186 16.691 23.7336 16.5194L24 16.1258L23.7407 15.7251ZM15.9989 19.2657C15.5047 19.2657 15.0383 19.2097 14.5933 19.1192L15.9554 17.7496C16.1353 17.7992 16.3232 17.8294 16.5196 17.8294C17.7024 17.8294 18.6624 16.8656 18.6624 15.6748C18.6624 15.478 18.6324 15.2884 18.5831 15.1074L19.7695 13.9145C20.978 14.6557 21.8258 15.585 22.2436 16.1064C21.4673 17.0329 19.2566 19.2657 15.9989 19.2657Z" fill="#A3A3A3"/>
<path d="M10.7249 18.9469L11.7627 17.9033L16.7846 12.8538L18.0103 11.6214C17.386 11.4641 16.7189 11.3657 15.9996 11.3657C11.1313 11.3657 8.37284 15.547 8.25856 15.7251L8 16.1258L8.26642 16.5194C8.32784 16.612 9.17923 17.8444 10.7249 18.9469Z" fill="#A3A3A3"/>
</g>
<defs>
<clipPath id="clip0">
<rect width="16" height="16" fill="white" transform="translate(8 8)"/>
</clipPath>
</defs>
</svg>
