<svg width="32" height="32" viewBox="0 0 32 32" fill="none" xmlns="http://www.w3.org/2000/svg">
<circle cx="16" cy="16" r="6" fill="#037AA8"/>
<circle cx="16" cy="16" r="6" fill="url(#paint0_linear)" fill-opacity="0.32" style="mix-blend-mode:overlay"/>
<path d="M16.6667 17.8805H17.95V18.9513H14.05V17.8805H15.3333H15.3833V17.8305V16.0742V16.0242H15.3333H14.7167V14.9534H16C16.3473 14.9534 16.6167 15.1991 16.6167 15.4888V17.8305V17.8805H16.6667ZM16 13.0513C16.4387 13.0513 16.7833 13.3627 16.7833 13.7331C16.7833 14.1041 16.4387 14.4149 16 14.4149C15.5613 14.4149 15.2167 14.1036 15.2167 13.7325C15.2167 13.3622 15.5613 13.0513 16 13.0513Z" fill="white" stroke="#038CB5" stroke-width="0.1"/>
<defs>
<linearGradient id="paint0_linear" x1="16" y1="10" x2="16" y2="22" gradientUnits="userSpaceOnUse">
<stop stop-color="white"/>
<stop offset="1" stop-color="white" stop-opacity="0"/>
</linearGradient>
</defs>
</svg>
