<svg width="32" height="32" viewBox="0 0 32 32" fill="none" xmlns="http://www.w3.org/2000/svg">
<path d="M13.2871 21H19.6693C20.1028 21 20.4257 20.8901 20.638 20.6702C20.8503 20.4503 20.9564 20.1071 20.9564 19.6407V15.7499C20.9564 15.2879 20.8503 14.947 20.638 14.7271C20.4257 14.5072 20.1028 14.3972 19.6693 14.3972L13.4212 14.4106C12.9922 14.4106 12.648 14.5194 12.3888 14.7371C12.1296 14.9547 12 15.2923 12 15.7499V19.6407C12 20.1071 12.1073 20.4503 12.3218 20.6702C12.5363 20.8901 12.8581 21 13.2871 21ZM13.0659 14.8437H14.1452V12.5848C14.1452 12.0251 14.2525 11.5554 14.467 11.1756C14.6816 10.7957 14.9665 10.5092 15.3218 10.316C15.6771 10.1228 16.0626 10.0261 16.4782 10.0261C16.8983 10.0261 17.2849 10.1228 17.638 10.316C17.9911 10.5092 18.2749 10.7957 18.4894 11.1756C18.7039 11.5554 18.8112 12.0251 18.8112 12.5848V14.8437H19.8905V12.7248C19.8905 12.0984 19.7967 11.552 19.6089 11.0856C19.4212 10.6192 19.1665 10.2316 18.8447 9.92286C18.5229 9.61413 18.1575 9.38314 17.7486 9.22988C17.3397 9.07663 16.9162 9 16.4782 9C16.0402 9 15.6179 9.07663 15.2112 9.22988C14.8045 9.38314 14.4402 9.61413 14.1184 9.92286C13.7966 10.2316 13.5408 10.6192 13.3508 11.0856C13.1609 11.552 13.0659 12.0984 13.0659 12.7248L13.0659 14.8437Z" fill="#A6A6A6"/>
</svg>
