<svg width="32" height="32" viewBox="0 0 32 32" fill="none" xmlns="http://www.w3.org/2000/svg">
<path fill-rule="evenodd" clip-rule="evenodd" d="M19.6775 19.6775C22.8064 16.5486 22.8064 11.4756 19.6775 8.34669C16.5486 5.21777 11.4756 5.21777 8.34669 8.34669C5.21777 11.4756 5.21777 16.5486 8.34669 19.6775C11.4756 22.8064 16.5486 22.8064 19.6775 19.6775ZM18.4449 18.4449C20.893 15.9967 20.893 12.0275 18.4449 9.57932C15.9967 7.13116 12.0275 7.13116 9.57931 9.57932C7.13116 12.0275 7.13116 15.9967 9.57931 18.4449C12.0275 20.893 15.9967 20.893 18.4449 18.4449Z" fill="#2E292A"/>
<path d="M17.6441 20.1094L20.1094 17.6441L24.4894 22.0242C25.1702 22.7049 25.1702 23.8087 24.4894 24.4894C23.8087 25.1702 22.7049 25.1702 22.0242 24.4894L17.6441 20.1094Z" fill="#2E292A"/>
</svg>
