<svg width="80" height="80" viewBox="0 0 80 80" fill="none" xmlns="http://www.w3.org/2000/svg">
<circle cx="40" cy="40" r="38.5" stroke="#A6A6A6" stroke-width="3"/>
<g clip-path="url(#clip0)">
<path d="M39.9929 56C40.2862 56 40.5298 55.9007 40.7237 55.702C40.9177 55.5034 41.0146 55.2621 41.0146 54.9783V49.9406C41.0146 49.6568 40.9177 49.4156 40.7237 49.2169C40.5298 49.0182 40.2862 48.9189 39.9929 48.9189C39.7091 48.9189 39.4702 49.0182 39.2763 49.2169C39.0823 49.4156 38.9854 49.6568 38.9854 49.9406V54.9783C38.9854 55.2621 39.0823 55.5034 39.2763 55.702C39.4702 55.9007 39.7091 56 39.9929 56ZM47.9965 53.8572C48.2519 53.7153 48.4127 53.5096 48.479 53.2399C48.5452 52.9703 48.5121 52.7125 48.3796 52.4665L45.8537 48.0958C45.7118 47.8498 45.5084 47.689 45.2435 47.6133C44.9786 47.5376 44.7184 47.5708 44.463 47.7127C44.2076 47.864 44.0467 48.0722 43.9805 48.3371C43.9143 48.6019 43.9521 48.8574 44.094 49.1034L46.6058 53.4741C46.7571 53.7201 46.9653 53.8809 47.2302 53.9566C47.4951 54.0323 47.7505 53.9991 47.9965 53.8572H47.9965ZM53.8572 47.9965C54.0086 47.7505 54.0464 47.4951 53.9708 47.2302C53.8951 46.9653 53.7342 46.7572 53.4883 46.6058L49.1033 44.0798C48.8574 43.9474 48.6019 43.9143 48.337 43.9805C48.0722 44.0467 47.8688 44.2028 47.7268 44.4488C47.5849 44.7042 47.5495 44.9644 47.6204 45.2293C47.6914 45.4942 47.8498 45.7023 48.0958 45.8537L52.4665 48.3796C52.7125 48.5121 52.9703 48.5452 53.2399 48.479C53.5096 48.4127 53.7153 48.2519 53.8572 47.9965V47.9965ZM56 39.9929C56 39.7091 55.903 39.4702 55.7091 39.2763C55.5152 39.0823 55.2716 38.9854 54.9783 38.9854H49.9406C49.6568 38.9854 49.4155 39.0823 49.2169 39.2763C49.0182 39.4702 48.9189 39.7091 48.9189 39.9929C48.9189 40.2862 49.0182 40.5298 49.2169 40.7237C49.4155 40.9177 49.6568 41.0147 49.9406 41.0147H54.9783C55.2716 41.0147 55.5152 40.9177 55.7091 40.7237C55.903 40.5298 56 40.2862 56 39.9929ZM53.8714 32.0036C53.7295 31.7481 53.5214 31.5873 53.247 31.5211C52.9727 31.4549 52.7125 31.488 52.4665 31.6204L48.0958 34.1464C47.8498 34.2883 47.689 34.494 47.6133 34.7637C47.5376 35.0333 47.5802 35.2958 47.741 35.5512C47.8829 35.7972 48.084 35.9533 48.3441 36.0195C48.6043 36.0858 48.8574 36.0526 49.1033 35.9202L53.4883 33.3942C53.7342 33.2429 53.8951 33.0348 53.9707 32.7699C54.0464 32.505 54.0133 32.2495 53.8714 32.0036L53.8714 32.0036ZM48.0107 26.1428C47.7552 26.0009 47.4951 25.9654 47.2302 26.0364C46.9653 26.1073 46.7571 26.2658 46.6058 26.5118L44.094 30.8967C43.9521 31.1427 43.9143 31.3981 43.9805 31.663C44.0467 31.9279 44.2076 32.136 44.463 32.2874C44.7184 32.4198 44.9762 32.4506 45.2364 32.3796C45.4965 32.3087 45.7023 32.1502 45.8537 31.9042L48.3796 27.5335C48.5121 27.2875 48.5452 27.0297 48.479 26.7601C48.4127 26.4905 48.2566 26.2847 48.0107 26.1428H48.0107ZM39.9929 24C39.7091 24 39.4702 24.0994 39.2763 24.298C39.0823 24.4967 38.9854 24.7379 38.9854 25.0217V30.0594C38.9854 30.3433 39.0823 30.5845 39.2763 30.7832C39.4702 30.9818 39.7091 31.0812 39.9929 31.0812C40.2862 31.0812 40.5298 30.9818 40.7237 30.7832C40.9177 30.5845 41.0146 30.3433 41.0146 30.0594V25.0217C41.0146 24.7379 40.9177 24.4967 40.7237 24.298C40.5298 24.0994 40.2862 24 39.9929 24ZM32.0035 26.1286C31.7481 26.2705 31.5873 26.4787 31.5211 26.753C31.4548 27.0274 31.4927 27.2875 31.6346 27.5335L34.1463 31.9042C34.2977 32.1502 34.5058 32.311 34.7707 32.3867C35.0356 32.4624 35.2911 32.4246 35.537 32.2732C35.7925 32.1313 35.9533 31.9279 36.0195 31.663C36.0857 31.3981 36.0526 31.1427 35.9202 30.8967L33.3942 26.5118C33.2429 26.2658 33.0371 26.105 32.7769 26.0293C32.5168 25.9536 32.259 25.9867 32.0035 26.1286H32.0035ZM26.157 31.9894C26.0056 32.2448 25.9678 32.505 26.0435 32.7699C26.1191 33.0348 26.28 33.2429 26.5259 33.3943L30.8967 35.9202C31.1426 36.0526 31.3981 36.0858 31.663 36.0195C31.9279 35.9533 32.136 35.7972 32.2874 35.5512C32.4293 35.2958 32.4624 35.0356 32.3867 34.7708C32.311 34.5059 32.1502 34.2977 31.9042 34.1464L27.5335 31.6204C27.2875 31.488 27.0297 31.4549 26.7601 31.5211C26.4905 31.5873 26.2894 31.7434 26.157 31.9894H26.157ZM24 39.9929C24 40.2862 24.0993 40.5298 24.298 40.7238C24.4967 40.9177 24.7379 41.0147 25.0217 41.0147H30.0594C30.3527 41.0147 30.5963 40.9177 30.7902 40.7238C30.9842 40.5298 31.0812 40.2862 31.0812 39.9929C31.0812 39.7091 30.9842 39.4702 30.7902 39.2763C30.5963 39.0824 30.3527 38.9854 30.0594 38.9854H25.0217C24.7379 38.9854 24.4967 39.0824 24.298 39.2763C24.0993 39.4702 24 39.7091 24 39.9929ZM26.157 47.9965C26.2894 48.2519 26.4905 48.4127 26.7601 48.479C27.0297 48.5452 27.2875 48.5121 27.5335 48.3796L31.9042 45.8537C32.1502 45.7023 32.311 45.4942 32.3867 45.2293C32.4624 44.9644 32.4293 44.709 32.2874 44.463C32.136 44.2076 31.9279 44.0467 31.663 43.9805C31.3981 43.9143 31.1426 43.9474 30.8967 44.0799L26.5259 46.6058C26.28 46.7572 26.1191 46.9653 26.0435 47.2302C25.9678 47.4951 26.0056 47.7505 26.157 47.9965H26.157ZM32.0035 53.8572C32.259 53.9992 32.5168 54.0323 32.7769 53.9566C33.0371 53.8809 33.2429 53.7201 33.3942 53.4741L35.9202 49.1034C36.0526 48.8574 36.0857 48.602 36.0195 48.3371C35.9533 48.0722 35.7972 47.8688 35.5512 47.7269C35.2958 47.585 35.0356 47.5495 34.7707 47.6204C34.5058 47.6914 34.2977 47.8498 34.1463 48.0958L31.6346 52.4666C31.4927 52.7125 31.4548 52.9703 31.5211 53.24C31.5873 53.5096 31.7481 53.7153 32.0035 53.8572L32.0035 53.8572Z" fill="#A6A6A6"/>
</g>
<defs>
<clipPath id="clip0">
<rect width="32" height="32" fill="white" transform="translate(24 24)"/>
</clipPath>
</defs>
</svg>
