<svg width="80" height="80" viewBox="0 0 80 80" fill="none" xmlns="http://www.w3.org/2000/svg">
<circle cx="40" cy="40" r="38.5" stroke="#DE7D4A" stroke-width="3"/>
<circle cx="40" cy="40" r="38.5" stroke="url(#paint0_linear)" stroke-opacity="0.48" stroke-width="3" style="mix-blend-mode:overlay"/>
<path d="M38.2668 22.0104C39.036 20.6743 40.964 20.6743 41.7332 22.0104L57.2739 49.0021C58.0416 50.3354 57.0792 52 55.5407 52H24.4593C22.9208 52 21.9584 50.3354 22.7261 49.0021L38.2668 22.0104Z" fill="url(#paint1_linear)"/>
<path d="M39.0682 41.5037C39.353 41.4194 39.6713 41.3857 39.9896 41.3857C40.3247 41.3857 40.6598 41.4362 40.9446 41.5205L41.9497 33.2592C41.9665 33.1749 41.9665 33.0906 41.9665 32.9895C41.9665 31.8936 41.0786 31 39.9896 31C39.42 31 38.8839 31.2529 38.5154 31.6744C38.1468 32.1128 37.9458 32.686 38.0128 33.2424L39.0682 41.5037Z" fill="#E5E5E5"/>
<path d="M40.0064 43.0042C38.9174 43.0042 38.0128 43.8978 38.0128 44.9937C38.0128 46.1064 38.9007 47 40.0064 47C41.1121 47 42 46.0896 42 44.9937C42 43.8978 41.0953 43.0042 40.0064 43.0042Z" fill="#E5E5E5"/>
<defs>
<linearGradient id="paint0_linear" x1="40" y1="0" x2="40" y2="80" gradientUnits="userSpaceOnUse">
<stop stop-color="white"/>
<stop offset="1" stop-color="white" stop-opacity="0"/>
</linearGradient>
<linearGradient id="paint1_linear" x1="40" y1="64" x2="40" y2="19" gradientUnits="userSpaceOnUse">
<stop stop-color="#DE7E4B"/>
<stop offset="1" stop-color="#EEB86D"/>
</linearGradient>
</defs>
</svg>
