<svg width="80" height="80" viewBox="0 0 80 80" fill="none" xmlns="http://www.w3.org/2000/svg">
<circle cx="40" cy="40" r="38.5" stroke="#05D70C" stroke-width="3"/>
<path d="M23 44.9927C23 46.5376 23.2878 47.9546 23.8635 49.2436C24.4391 50.5327 25.2313 51.5634 26.2399 52.3359C27.2485 53.1083 28.3973 53.4945 29.6864 53.4945H32.417C31.0394 52.4712 30.0258 51.2141 29.3764 49.7233C28.727 48.2325 28.417 46.6065 28.4465 44.8451C28.4662 43.5462 28.6261 42.3703 28.9262 41.3174C29.2263 40.2645 29.6003 39.3297 30.048 38.513C30.4957 37.6962 30.9508 37.0074 31.4133 36.4465H29.1107C27.9496 36.4465 26.909 36.8254 25.9889 37.5831C25.0689 38.3408 24.3407 39.3666 23.8044 40.6606C23.2681 41.9546 23 43.3986 23 44.9927L23 44.9927ZM48.9189 54.6311C49.5093 54.4933 50.0579 54.2202 50.5646 53.8119C51.0714 53.4035 51.3248 52.8303 51.3248 52.0923C51.3248 51.7971 51.2879 51.5388 51.2141 51.3174C51.1403 51.096 51.0542 50.8967 50.9558 50.7196C50.8279 50.513 50.8525 50.3703 51.0296 50.2916C51.5117 50.0751 51.9299 49.7528 52.2842 49.3248C52.6384 48.8967 52.8156 48.3678 52.8156 47.7381C52.8156 47.0197 52.6335 46.4293 52.2694 45.9669C52.0923 45.7405 52.1415 45.5487 52.417 45.3912C52.7713 45.1846 53.0566 44.8746 53.2731 44.4613C53.4896 44.048 53.5978 43.5855 53.5978 43.0739C53.5978 42.7098 53.5388 42.3531 53.4207 42.0038C53.3026 41.6544 53.1403 41.3814 52.9336 41.1846C52.727 41.0074 52.7565 40.8156 53.0222 40.6089C53.5339 40.2055 53.7897 39.5363 53.7897 38.6015C53.7897 37.8537 53.5314 37.2116 53.0148 36.6753C52.4982 36.1391 51.8561 35.8709 51.0886 35.8709H45.5831C44.8844 35.8709 44.3211 35.7012 43.893 35.3617C43.465 35.0222 43.251 34.5671 43.251 33.9964C43.251 33.465 43.3838 32.8451 43.6495 32.1366C43.9152 31.4281 44.2202 30.6778 44.5646 29.8857C44.909 29.0935 45.2141 28.3014 45.4798 27.5093C45.7454 26.7172 45.8783 25.9767 45.8783 25.2879C45.8783 24.5696 45.6716 24.0087 45.2584 23.6052C44.8451 23.2018 44.3334 23.0001 43.7233 23.0001C43.1624 23.0001 42.7171 23.1772 42.3875 23.5314C42.0579 23.8857 41.7454 24.3531 41.4502 24.9336C40.6827 26.449 39.8463 27.8685 38.941 29.1919C38.0357 30.5154 37.128 31.7627 36.2178 32.9336C35.3075 34.1046 34.4588 35.2116 33.6716 36.2547C33.0025 37.1501 32.4465 38.021 32.0037 38.8672C31.5609 39.7135 31.2264 40.6188 31 41.5831C30.7737 42.5474 30.6507 43.6495 30.631 44.8894C30.6114 46.3063 30.8721 47.6249 31.4133 48.8451C31.9545 50.0652 32.7417 51.1329 33.775 52.048C34.8082 52.9632 36.0529 53.6766 37.5093 54.1882C38.9656 54.6999 40.5991 54.9607 42.4096 54.9705L44.5499 55.0001C45.5634 55.0001 46.4367 54.9681 47.1698 54.9041C47.9029 54.8402 48.4859 54.7491 48.9189 54.6311V54.6311Z" fill="#05D70C"/>
</svg>
