<svg width="80" height="80" viewBox="0 0 80 80" fill="none" xmlns="http://www.w3.org/2000/svg">
<path d="M78.5 40C78.5 61.263 61.263 78.5 40 78.5C18.737 78.5 1.5 61.263 1.5 40C1.5 18.737 18.737 1.5 40 1.5C61.263 1.5 78.5 18.737 78.5 40Z" stroke="#DE7D4A" stroke-width="3"/>
<path d="M78.5 40C78.5 61.263 61.263 78.5 40 78.5C18.737 78.5 1.5 61.263 1.5 40C1.5 18.737 18.737 1.5 40 1.5C61.263 1.5 78.5 18.737 78.5 40Z" stroke="url(#paint0_linear)" stroke-opacity="0.48" stroke-width="3" style="mix-blend-mode:overlay"/>
<path d="M23 35.0073C23 33.4624 23.2878 32.0454 23.8635 30.7564C24.4391 29.4673 25.2313 28.4366 26.2399 27.6641C27.2485 26.8917 28.3973 26.5055 29.6864 26.5055C30.5565 26.5055 30.9995 27.7173 30.4719 28.4092C30.0333 28.9846 29.6681 29.6071 29.3764 30.2767C28.727 31.7675 28.417 33.3935 28.4465 35.1549C28.4662 36.4538 28.6261 37.6297 28.9262 38.6826C29.2263 39.7355 29.6003 40.6703 30.048 41.487C30.0767 41.5394 30.1054 41.5912 30.1342 41.6425C30.583 42.4432 30.0286 43.5535 29.1107 43.5535C27.9496 43.5535 26.909 43.1746 25.9889 42.4169C25.0689 41.6592 24.3407 40.6334 23.8044 39.3394C23.2681 38.0455 23 36.6014 23 35.0073ZM48.9189 25.3689C49.5093 25.5067 50.0579 25.7798 50.5646 26.1881C51.0714 26.5965 51.3248 27.1697 51.3248 27.9077C51.3248 28.2029 51.2879 28.4612 51.2141 28.6826C51.1403 28.904 51.0542 29.1033 50.9558 29.2804C50.8279 29.487 50.8525 29.6297 51.0296 29.7084C51.5117 29.9249 51.9299 30.2472 52.2842 30.6752C52.6384 31.1033 52.8156 31.6322 52.8156 32.2619C52.8156 32.9803 52.6335 33.5707 52.2694 34.0331C52.0923 34.2595 52.1415 34.4513 52.417 34.6088C52.7713 34.8154 53.0566 35.1254 53.2731 35.5387C53.4896 35.952 53.5978 36.4145 53.5978 36.9261C53.5978 37.2902 53.5388 37.6469 53.4207 37.9962C53.3026 38.3456 53.1403 38.6186 52.9336 38.8154C52.727 38.9926 52.7565 39.1844 53.0222 39.3911C53.5339 39.7945 53.7897 40.4637 53.7897 41.3985C53.7897 42.1463 53.5314 42.7884 53.0148 43.3247C52.4982 43.861 51.8561 44.1291 51.0886 44.1291H45.5831C44.8844 44.1291 44.3211 44.2988 43.893 44.6383C43.465 44.9778 43.251 45.4329 43.251 46.0036C43.251 46.535 43.3838 47.1549 43.6495 47.8634C43.9152 48.5719 44.2202 49.3222 44.5646 50.1143C44.909 50.9065 45.2141 51.6986 45.4798 52.4907C45.7454 53.2828 45.8783 54.0233 45.8783 54.7121C45.8783 55.4304 45.6716 55.9913 45.2584 56.3948C44.8451 56.7982 44.3334 56.9999 43.7233 56.9999C43.1624 56.9999 42.7171 56.8228 42.3875 56.4686C42.0579 56.1143 41.7454 55.6469 41.4502 55.0664C40.6827 53.551 39.8463 52.1315 38.941 50.8081C38.0357 49.4846 37.128 48.2373 36.2178 47.0664C35.3075 45.8954 34.4588 44.7884 33.6716 43.7453C33.0025 42.8499 32.4465 41.979 32.0037 41.1328C31.5609 40.2865 31.2264 39.3812 31 38.4169C30.7737 37.4526 30.6507 36.3505 30.631 35.1106C30.6114 33.6937 30.8721 32.3751 31.4133 31.1549C31.9545 29.9348 32.7417 28.8671 33.775 27.952C34.8082 27.0368 36.0529 26.3234 37.5093 25.8118C38.9656 25.3001 40.5991 25.0393 42.4096 25.0295L44.5499 24.9999C45.5634 24.9999 46.4367 25.0319 47.1698 25.0959C47.9029 25.1598 48.4859 25.2509 48.9189 25.3689Z" fill="url(#paint1_linear)"/>
<defs>
<linearGradient id="paint0_linear" x1="40" y1="0" x2="40" y2="80" gradientUnits="userSpaceOnUse">
<stop stop-color="white"/>
<stop offset="1" stop-color="white" stop-opacity="0"/>
</linearGradient>
<linearGradient id="paint1_linear" x1="38.3949" y1="56.9999" x2="38.3949" y2="24.9999" gradientUnits="userSpaceOnUse">
<stop stop-color="#DE7E4B"/>
<stop offset="1" stop-color="#EEB86D"/>
</linearGradient>
</defs>
</svg>
