<svg width="16" height="16" viewBox="0 0 16 16" fill="none" xmlns="http://www.w3.org/2000/svg">
<g clip-path="url(#clip0)">
<path d="M4.30493 8.9872H9.11075C9.2269 8.9872 9.32491 8.94728 9.40476 8.86742C9.48462 8.78757 9.52454 8.68956 9.52454 8.57341C9.52454 8.45242 9.48462 8.35079 9.40476 8.26851C9.32491 8.18624 9.2269 8.1451 9.11075 8.1451H4.30493C4.18878 8.1451 4.08956 8.18624 4.00729 8.26851C3.92501 8.35079 3.88388 8.45242 3.88388 8.57341C3.88388 8.68956 3.92501 8.78757 4.00729 8.86742C4.08956 8.94728 4.18878 8.9872 4.30493 8.9872ZM4.30493 6.6206H11.6951C11.8113 6.6206 11.9105 6.58067 11.9928 6.50081C12.075 6.42096 12.1162 6.32054 12.1162 6.19954C12.1162 6.08823 12.075 5.99023 11.9928 5.90553C11.9105 5.82084 11.8113 5.77849 11.6951 5.77849H4.30493C4.18878 5.77849 4.08956 5.82084 4.00729 5.90553C3.92501 5.99023 3.88388 6.08823 3.88388 6.19954C3.88388 6.32054 3.92501 6.42096 4.00729 6.50081C4.08956 6.58067 4.18878 6.6206 4.30493 6.6206ZM4.30493 4.26125H11.6951C11.8113 4.26125 11.9105 4.22011 11.9928 4.13784C12.075 4.05556 12.1162 3.95635 12.1162 3.8402C12.1162 3.72405 12.075 3.62604 11.9928 3.54619C11.9105 3.46633 11.8113 3.42641 11.6951 3.42641H4.30493C4.18878 3.42641 4.08956 3.46633 4.00729 3.54619C3.92501 3.62604 3.88388 3.72405 3.88388 3.8402C3.88388 3.95635 3.92501 4.05556 4.00729 4.13784C4.08956 4.22011 4.18878 4.26125 4.30493 4.26125ZM4.46464 15.0199C4.64371 15.0199 4.80826 14.9715 4.95829 14.8747C5.10832 14.7779 5.29223 14.6327 5.51001 14.4391L8.01455 12.2104H12.6752C13.3963 12.2104 14.0037 12.081 14.4973 11.822C14.991 11.5631 15.3648 11.1868 15.6189 10.6932C15.873 10.1995 16 9.59699 16 8.88556V3.32477C16 2.61334 15.873 2.0108 15.6189 1.51715C15.3648 1.0235 14.991 0.647212 14.4973 0.388291C14.0037 0.129368 13.3963 -9.15527e-05 12.6752 -9.15527e-05H3.3249C2.60378 -9.15527e-05 1.9964 0.129368 1.50275 0.388291C1.00911 0.647213 0.635238 1.0235 0.381156 1.51715C0.127072 2.0108 3.05176e-05 2.61334 3.05176e-05 3.32477V8.88556C3.05176e-05 9.59699 0.127072 10.1995 0.381156 10.6932C0.635239 11.1868 1.00911 11.5631 1.50275 11.822C1.9964 12.081 2.60378 12.2104 3.3249 12.2104H3.67335V14.0979C3.67335 14.3786 3.74232 14.6024 3.88025 14.7694C4.01818 14.9364 4.21298 15.0199 4.46464 15.0199L4.46464 15.0199ZM4.76228 13.6914V11.5861C4.76228 11.3877 4.72114 11.2473 4.63887 11.165C4.55659 11.0828 4.41624 11.0416 4.21782 11.0416H3.32489C2.58926 11.0416 2.04601 10.8589 1.69513 10.4935C1.34425 10.1281 1.16881 9.58973 1.16881 8.8783V3.32477C1.16881 2.61818 1.34425 2.08219 1.69513 1.71679C2.04601 1.35139 2.58926 1.16869 3.32489 1.16869H12.6752C13.406 1.16869 13.948 1.35139 14.3013 1.71679C14.6546 2.08219 14.8313 2.61818 14.8313 3.32477V8.8783C14.8313 9.58973 14.6546 10.1281 14.3013 10.4935C13.948 10.8589 13.406 11.0416 12.6752 11.0416H7.97099C7.76772 11.0416 7.60318 11.0634 7.47734 11.107C7.35151 11.1505 7.22084 11.2425 7.08533 11.3828L4.76228 13.6914Z" fill="#2E292A"/>
</g>
<defs>
<clipPath id="clip0">
<rect width="16" height="16" fill="white"/>
</clipPath>
</defs>
</svg>
