<svg width="48" height="48" viewBox="0 0 48 48" fill="none" xmlns="http://www.w3.org/2000/svg">
<path d="M8 7C8 4.79086 9.79086 3 12 3H28.6716C29.202 3 29.7107 3.21071 30.0858 3.58579L39.4142 12.9142C39.7893 13.2893 40 13.798 40 14.3284V41C40 43.2091 38.2091 45 36 45H12C9.79086 45 8 43.2091 8 41V7Z" fill="white"/>
<path d="M29 3.96568C29 3.60932 29.4309 3.43085 29.6828 3.68284L39.3172 13.3172C39.5691 13.5691 39.3907 14 39.0343 14H34C31.2386 14 29 11.7614 29 9L29 3.96568Z" fill="white"/>
<path d="M29 3.96568C29 3.60932 29.4309 3.43085 29.6828 3.68284L39.3172 13.3172C39.5691 13.5691 39.3907 14 39.0343 14H34C31.2386 14 29 11.7614 29 9L29 3.96568Z" fill="#A6A6A6" fill-opacity="0.04"/>
<path opacity="0.48" fill-rule="evenodd" clip-rule="evenodd" d="M8 7C8 4.79086 9.79086 3 12 3H28.6716C29.202 3 29.7107 3.21071 30.0858 3.58579L39.4142 12.9142C39.7893 13.2893 40 13.798 40 14.3284V41C40 43.2091 38.2091 45 36 45H12C9.79086 45 8 43.2091 8 41V7ZM36 44.2H12C10.2327 44.2 8.8 42.7673 8.8 41V7C8.8 5.23269 10.2327 3.8 12 3.8H28.6716C28.7893 3.8 28.9053 3.81731 29.0161 3.85051C29.0057 3.88631 29 3.92483 29 3.96568V9C29 11.7614 31.2386 14 34 14H39.0343C39.0752 14 39.1137 13.9943 39.1495 13.9839C39.1827 14.0947 39.2 14.2107 39.2 14.3284V41C39.2 42.7673 37.7673 44.2 36 44.2ZM29.8 4.93137L38.0686 13.2H34C31.6804 13.2 29.8 11.3196 29.8 9V4.93137Z" fill="#A6A6A6"/>
<path fill-rule="evenodd" clip-rule="evenodd" d="M24.7557 16.5534C24.3965 16.2549 23.9603 16.1043 23.4872 16.1009C23.0566 16.0884 22.6304 16.2036 22.2801 16.4982C21.9389 16.785 21.7567 17.1689 21.6623 17.5344C21.4808 18.2369 21.5601 19.1159 21.7431 19.9932C22.0066 21.256 22.5401 22.762 23.2253 24.2733C22.9826 25.1957 22.689 26.1464 22.3581 27.0825C22.0924 27.834 21.8064 28.5657 21.5084 29.2567C20.2738 29.6699 19.129 30.1655 18.2255 30.7227C17.4647 31.1919 16.7731 31.766 16.3964 32.4608C16.2003 32.8224 16.0809 33.2336 16.1025 33.678C16.1241 34.1208 16.2828 34.5328 16.5421 34.9018C16.7988 35.2815 17.1349 35.6035 17.571 35.7747C18.0236 35.9522 18.4819 35.9273 18.893 35.7864C19.6506 35.5268 20.3181 34.8529 20.8774 34.1146C21.5468 33.2309 22.2108 32.05 22.8221 30.7292C23.4013 30.5567 24.0023 30.401 24.6092 30.2661C25.2815 30.1168 25.9471 29.996 26.5844 29.9064C27.0642 30.5045 27.5541 31.0304 28.0407 31.4493C28.7091 32.0247 29.4933 32.5056 30.3264 32.556C31.273 32.6133 32.0371 32.1104 32.5456 31.2516L32.553 31.239C32.7637 30.8695 32.9081 30.4604 32.8996 30.03C32.8907 29.5758 32.7124 29.1808 32.423 28.8734C31.9024 28.3205 31.0704 28.0958 30.3024 27.9961C29.4758 27.8888 28.4743 27.8983 27.3991 27.9986C26.8338 27.2046 26.2734 26.2921 25.7537 25.3258C25.5343 24.9179 25.3247 24.5051 25.1273 24.0932C25.4455 22.7778 25.663 21.5127 25.7364 20.4104C25.8052 19.3783 25.7557 18.3897 25.4732 17.6218C25.3285 17.2285 25.1046 16.8433 24.7557 16.5534ZM23.8745 20.996C23.9032 20.7524 23.9254 20.5169 23.9404 20.2907C24.0037 19.341 23.9353 18.6548 23.7839 18.2433C23.7116 18.0469 23.6397 17.9663 23.6053 17.9378C23.5855 17.9213 23.5572 17.9009 23.4707 17.9009H23.4542L23.4376 17.9003L23.4325 17.9001C23.4246 17.9192 23.4149 17.9466 23.4051 17.9846C23.3301 18.2747 23.3369 18.8188 23.5052 19.6256C23.5931 20.047 23.718 20.5081 23.8745 20.996ZM24.4124 26.6234C24.2983 26.9786 24.1789 27.3323 24.0552 27.6824C23.9432 27.9993 23.8269 28.3149 23.707 28.6277C23.8777 28.5864 24.0484 28.5469 24.2188 28.509C24.6136 28.4213 25.0113 28.3417 25.4073 28.2714C25.0614 27.742 24.7279 27.1875 24.4124 26.6234ZM20.3381 31.6414C19.9065 31.8379 19.5132 32.0433 19.1704 32.2548C18.5069 32.6639 18.1326 33.0351 17.9788 33.3188C17.9096 33.4464 17.8976 33.5328 17.9004 33.5903C17.9031 33.6455 17.9222 33.7362 18.0175 33.8707L18.0241 33.88L18.0304 33.8894C18.1502 34.0679 18.226 34.0981 18.2285 34.099C18.2285 34.099 18.2309 34.1 18.2353 34.1C18.2422 34.0999 18.2657 34.0986 18.3095 34.0836C18.5329 34.0071 18.9266 33.7088 19.4426 33.0277C19.7371 32.6388 20.0381 32.1707 20.3381 31.6414ZM28.8232 29.7203C28.9555 29.8524 29.0863 29.9743 29.2151 30.0852C29.7847 30.5756 30.1949 30.7448 30.4352 30.7593C30.5616 30.767 30.7489 30.7501 30.993 30.3408C31.0663 30.2111 31.0894 30.1307 31.0967 30.0924C31.0076 30.0154 30.7197 29.8654 30.0708 29.7812C29.7065 29.7339 29.2859 29.7142 28.8232 29.7203Z" fill="#A6A6A6"/>
<rect x="24" y="29" width="22" height="12" rx="3" fill="white"/>
<rect x="25" y="30" width="20" height="10" rx="3" fill="#FB4949"/>
<path d="M29.7974 32.8126C30.5621 32.8126 31.1491 32.9483 31.5586 33.2196C31.9681 33.486 32.1728 33.9251 32.1728 34.5368C32.1728 35.1535 31.9656 35.5999 31.5512 35.8762C31.1368 36.1475 30.5448 36.2832 29.7752 36.2832H29.4126V38H28.2582V32.9458C28.5098 32.8965 28.7762 32.8619 29.0574 32.8422C29.3386 32.8225 29.5853 32.8126 29.7974 32.8126ZM29.8714 33.7968C29.7875 33.7968 29.7037 33.7993 29.6198 33.8042C29.5409 33.8091 29.4718 33.8141 29.4126 33.819V35.299H29.7752C30.1748 35.299 30.4757 35.2447 30.678 35.1362C30.8803 35.0277 30.9814 34.8254 30.9814 34.5294C30.9814 34.3863 30.9543 34.2679 30.9 34.1742C30.8507 34.0805 30.7767 34.0065 30.678 33.9522C30.5843 33.893 30.4683 33.8535 30.3302 33.8338C30.1921 33.8091 30.0391 33.7968 29.8714 33.7968ZM34.1749 37.0602C34.2292 37.0651 34.2908 37.0701 34.3599 37.075C34.4339 37.075 34.5202 37.075 34.6189 37.075C35.1961 37.075 35.6228 36.9295 35.8991 36.6384C36.1803 36.3473 36.3209 35.9453 36.3209 35.4322C36.3209 34.8945 36.1877 34.4875 35.9213 34.2112C35.6549 33.9349 35.2331 33.7968 34.6559 33.7968C34.577 33.7968 34.4956 33.7993 34.4117 33.8042C34.3278 33.8042 34.2489 33.8091 34.1749 33.819V37.0602ZM37.5123 35.4322C37.5123 35.8762 37.4432 36.2635 37.3051 36.594C37.167 36.9245 36.9696 37.1983 36.7131 37.4154C36.4615 37.6325 36.1532 37.7953 35.7881 37.9038C35.423 38.0123 35.0136 38.0666 34.5597 38.0666C34.3525 38.0666 34.1108 38.0567 33.8345 38.037C33.5582 38.0222 33.2869 37.9877 33.0205 37.9334V32.9384C33.2869 32.8891 33.5632 32.857 33.8493 32.8422C34.1404 32.8225 34.3895 32.8126 34.5967 32.8126C35.0358 32.8126 35.4329 32.8619 35.7881 32.9606C36.1482 33.0593 36.4566 33.2147 36.7131 33.4268C36.9696 33.6389 37.167 33.9103 37.3051 34.2408C37.4432 34.5713 37.5123 34.9685 37.5123 35.4322ZM38.4766 38V32.8718H41.9102V33.8412H39.631V34.9142H41.6586V35.8836H39.631V38H38.4766Z" fill="white"/>
</svg>
