<svg width="40" height="40" viewBox="0 0 40 40" fill="none" xmlns="http://www.w3.org/2000/svg">
<circle cx="20" cy="20" r="20" fill="url(#paint0_linear)"/>
<path d="M14.088 25.112C13.5747 25.112 13.0567 25.0933 12.534 25.056C12.0113 25.028 11.554 24.9627 11.162 24.86V15.438C11.3673 15.4007 11.5867 15.368 11.82 15.34C12.0533 15.3027 12.2913 15.2747 12.534 15.256C12.7767 15.2373 13.0147 15.2233 13.248 15.214C13.4907 15.2047 13.7193 15.2 13.934 15.2C14.522 15.2 15.068 15.2467 15.572 15.34C16.076 15.424 16.51 15.5687 16.874 15.774C17.2473 15.9793 17.5367 16.25 17.742 16.586C17.9473 16.922 18.05 17.3373 18.05 17.832C18.05 18.2893 17.938 18.6813 17.714 19.008C17.4993 19.3347 17.196 19.596 16.804 19.792C17.392 19.988 17.826 20.2773 18.106 20.66C18.386 21.0427 18.526 21.528 18.526 22.116C18.526 23.1147 18.162 23.866 17.434 24.37C16.706 24.8647 15.5907 25.112 14.088 25.112ZM12.898 20.632V23.586C13.094 23.6047 13.304 23.6187 13.528 23.628C13.752 23.6373 13.9573 23.642 14.144 23.642C14.508 23.642 14.844 23.6187 15.152 23.572C15.4693 23.5253 15.74 23.446 15.964 23.334C16.1973 23.2127 16.3793 23.054 16.51 22.858C16.65 22.662 16.72 22.41 16.72 22.102C16.72 21.5513 16.5193 21.1687 16.118 20.954C15.7167 20.7393 15.1613 20.632 14.452 20.632H12.898ZM12.898 19.246H14.144C14.816 19.246 15.3433 19.1527 15.726 18.966C16.1087 18.77 16.3 18.4247 16.3 17.93C16.3 17.4633 16.0993 17.132 15.698 16.936C15.306 16.74 14.7927 16.642 14.158 16.642C13.8873 16.642 13.6447 16.6467 13.43 16.656C13.2247 16.6653 13.0473 16.6793 12.898 16.698V19.246ZM28.0352 15.298V25H26.2712V16.81H22.1272V25H20.3632V15.298H28.0352Z" fill="white"/>
<defs>
<linearGradient id="paint0_linear" x1="20" y1="0" x2="20" y2="40" gradientUnits="userSpaceOnUse">
<stop stop-color="#A9C8FD"/>
<stop offset="1" stop-color="#9492FC"/>
</linearGradient>
</defs>
</svg>
