<svg width="32" height="32" viewBox="0 0 32 32" fill="none" xmlns="http://www.w3.org/2000/svg">
<path d="M6.10051 6.10046C4.14258 8.0584 2.80921 10.553 2.26901 13.2687C1.72882 15.9844 2.00607 18.7994 3.06569 21.3575C4.12532 23.9157 5.91973 26.1022 8.22202 27.6405C10.5243 29.1789 13.2311 30 16 30C18.7689 30 21.4757 29.1789 23.778 27.6405C26.0803 26.1022 27.8747 23.9157 28.9343 21.3575C29.9939 18.7994 30.2712 15.9844 29.731 13.2687C29.1908 10.553 27.8574 8.0584 25.8995 6.10046L16 16L6.10051 6.10046Z" fill="white"/>
<path d="M6.10051 6.10046C4.14258 8.0584 2.80921 10.553 2.26901 13.2687C1.72882 15.9844 2.00607 18.7994 3.06569 21.3575C4.12532 23.9157 5.91973 26.1022 8.22202 27.6405C10.5243 29.1789 13.2311 30 16 30C18.7689 30 21.4757 29.1789 23.778 27.6405C26.0803 26.1022 27.8747 23.9157 28.9343 21.3575C29.9939 18.7994 30.2712 15.9844 29.731 13.2687C29.1908 10.553 27.8574 8.0584 25.8995 6.10046L16 16L6.10051 6.10046Z" fill="#0374A0" fill-opacity="0.04"/>
<path d="M16 21.75C16 19.0001 20.5 11.5 20.5 11.5C20.5 11.5 18 13.7501 16 13.7501C14 13.7501 11.5 11.5 11.5 11.5C11.5 11.5 16 19.0001 16 21.75Z" fill="#037AA8"/>
<path d="M16 21.75C16 19.0001 20.5 11.5 20.5 11.5C20.5 11.5 18 13.7501 16 13.7501C14 13.7501 11.5 11.5 11.5 11.5C11.5 11.5 16 19.0001 16 21.75Z" fill="url(#paint0_linear)" fill-opacity="0.32" style="mix-blend-mode:overlay"/>
<path d="M17 10C17 10.5523 16.5523 11 16 11C15.4477 11 15 10.5523 15 10C15 9.44772 15.4477 9 16 9C16.5523 9 17 9.44772 17 10Z" fill="#037AA8"/>
<path d="M17 10C17 10.5523 16.5523 11 16 11C15.4477 11 15 10.5523 15 10C15 9.44772 15.4477 9 16 9C16.5523 9 17 9.44772 17 10Z" fill="url(#paint1_linear)" fill-opacity="0.32" style="mix-blend-mode:overlay"/>
<defs>
<linearGradient id="paint0_linear" x1="16" y1="9" x2="16" y2="21.75" gradientUnits="userSpaceOnUse">
<stop stop-color="white"/>
<stop offset="1" stop-color="white" stop-opacity="0"/>
</linearGradient>
<linearGradient id="paint1_linear" x1="16" y1="9" x2="16" y2="21.75" gradientUnits="userSpaceOnUse">
<stop stop-color="white"/>
<stop offset="1" stop-color="white" stop-opacity="0"/>
</linearGradient>
</defs>
</svg>
