<svg width="32" height="32" viewBox="0 0 32 32" fill="none" xmlns="http://www.w3.org/2000/svg">
<path d="M25.8995 25.8995C23.9416 27.8574 21.447 29.1908 18.7313 29.731C16.0155 30.2712 13.2006 29.9939 10.6424 28.9343C8.08427 27.8747 5.89777 26.0803 4.35943 23.778C2.82109 21.4757 2 18.7689 2 16C2 13.2311 2.82109 10.5243 4.35942 8.22202C5.89776 5.91973 8.08427 4.12531 10.6424 3.06569C13.2006 2.00606 16.0155 1.72881 18.7313 2.26901C21.447 2.8092 23.9416 4.14257 25.8995 6.1005L16 16L25.8995 25.8995Z" fill="white"/>
<path d="M25.8995 25.8995C23.9416 27.8574 21.447 29.1908 18.7313 29.731C16.0155 30.2712 13.2006 29.9939 10.6424 28.9343C8.08427 27.8747 5.89777 26.0803 4.35943 23.778C2.82109 21.4757 2 18.7689 2 16C2 13.2311 2.82109 10.5243 4.35942 8.22202C5.89776 5.91973 8.08427 4.12531 10.6424 3.06569C13.2006 2.00606 16.0155 1.72881 18.7313 2.26901C21.447 2.8092 23.9416 4.14257 25.8995 6.1005L16 16L25.8995 25.8995Z" fill="#0374A0" fill-opacity="0.04"/>
<path d="M10.25 16C12.9999 16 20.5 11.5 20.5 11.5C20.5 11.5 18.2499 14 18.2499 16C18.2499 18 20.5 20.5 20.5 20.5C20.5 20.5 12.9999 16 10.25 16Z" fill="#037AA8"/>
<path d="M10.25 16C12.9999 16 20.5 11.5 20.5 11.5C20.5 11.5 18.2499 14 18.2499 16C18.2499 18 20.5 20.5 20.5 20.5C20.5 20.5 12.9999 16 10.25 16Z" fill="url(#paint0_linear)" fill-opacity="0.32" style="mix-blend-mode:overlay"/>
<path d="M23 16C23 16.5523 22.5523 17 22 17C21.4477 17 21 16.5523 21 16C21 15.4477 21.4477 15 22 15C22.5523 15 23 15.4477 23 16Z" fill="#037AA8"/>
<path d="M23 16C23 16.5523 22.5523 17 22 17C21.4477 17 21 16.5523 21 16C21 15.4477 21.4477 15 22 15C22.5523 15 23 15.4477 23 16Z" fill="url(#paint1_linear)" fill-opacity="0.32" style="mix-blend-mode:overlay"/>
<defs>
<linearGradient id="paint0_linear" x1="16.625" y1="11.5" x2="16.625" y2="20.5" gradientUnits="userSpaceOnUse">
<stop stop-color="white"/>
<stop offset="1" stop-color="white" stop-opacity="0"/>
</linearGradient>
<linearGradient id="paint1_linear" x1="16.625" y1="11.5" x2="16.625" y2="20.5" gradientUnits="userSpaceOnUse">
<stop stop-color="white"/>
<stop offset="1" stop-color="white" stop-opacity="0"/>
</linearGradient>
</defs>
</svg>
