<svg width="32" height="32" viewBox="0 0 32 32" fill="none" xmlns="http://www.w3.org/2000/svg">
<path d="M6.10051 25.8995C8.05844 27.8574 10.553 29.1908 13.2687 29.731C15.9845 30.2712 18.7994 29.9939 21.3576 28.9343C23.9157 27.8747 26.1022 26.0803 27.6406 23.778C29.1789 21.4757 30 18.7689 30 16C30 13.2311 29.1789 10.5243 27.6406 8.22202C26.1022 5.91973 23.9157 4.12531 21.3576 3.06569C18.7994 2.00606 15.9845 1.72881 13.2687 2.26901C10.553 2.8092 8.05844 4.14257 6.10051 6.1005L16 16L6.10051 25.8995Z" fill="white"/>
<path d="M6.10051 25.8995C8.05844 27.8574 10.553 29.1908 13.2687 29.731C15.9845 30.2712 18.7994 29.9939 21.3576 28.9343C23.9157 27.8747 26.1022 26.0803 27.6406 23.778C29.1789 21.4757 30 18.7689 30 16C30 13.2311 29.1789 10.5243 27.6406 8.22202C26.1022 5.91973 23.9157 4.12531 21.3576 3.06569C18.7994 2.00606 15.9845 1.72881 13.2687 2.26901C10.553 2.8092 8.05844 4.14257 6.10051 6.1005L16 16L6.10051 25.8995Z" fill="#0374A0" fill-opacity="0.04"/>
<path d="M21.75 16C19.0001 16 11.5 11.5 11.5 11.5C11.5 11.5 13.7501 14 13.7501 16C13.7501 18 11.5 20.5 11.5 20.5C11.5 20.5 19.0001 16 21.75 16Z" fill="#037AA8"/>
<path d="M21.75 16C19.0001 16 11.5 11.5 11.5 11.5C11.5 11.5 13.7501 14 13.7501 16C13.7501 18 11.5 20.5 11.5 20.5C11.5 20.5 19.0001 16 21.75 16Z" fill="url(#paint0_linear)" fill-opacity="0.32" style="mix-blend-mode:overlay"/>
<path d="M9 16C9 16.5523 9.44772 17 10 17C10.5523 17 11 16.5523 11 16C11 15.4477 10.5523 15 10 15C9.44772 15 9 15.4477 9 16Z" fill="#037AA8"/>
<path d="M9 16C9 16.5523 9.44772 17 10 17C10.5523 17 11 16.5523 11 16C11 15.4477 10.5523 15 10 15C9.44772 15 9 15.4477 9 16Z" fill="url(#paint1_linear)" fill-opacity="0.32" style="mix-blend-mode:overlay"/>
<defs>
<linearGradient id="paint0_linear" x1="15.375" y1="11.5" x2="15.375" y2="20.5" gradientUnits="userSpaceOnUse">
<stop stop-color="white"/>
<stop offset="1" stop-color="white" stop-opacity="0"/>
</linearGradient>
<linearGradient id="paint1_linear" x1="15.375" y1="11.5" x2="15.375" y2="20.5" gradientUnits="userSpaceOnUse">
<stop stop-color="white"/>
<stop offset="1" stop-color="white" stop-opacity="0"/>
</linearGradient>
</defs>
</svg>
