<svg width="32" height="32" viewBox="0 0 32 32" fill="none" xmlns="http://www.w3.org/2000/svg">
<path d="M6.10051 25.8995C4.14258 23.9416 2.80921 21.447 2.26901 18.7313C1.72882 16.0156 2.00607 13.2006 3.06569 10.6425C4.12532 8.0843 5.91973 5.8978 8.22202 4.3595C10.5243 2.8211 13.2311 2 16 2C18.7689 2 21.4757 2.8211 23.778 4.3595C26.0803 5.8978 27.8747 8.0843 28.9343 10.6425C29.9939 13.2006 30.2712 16.0156 29.731 18.7313C29.1908 21.447 27.8574 23.9416 25.8995 25.8995L16 16L6.10051 25.8995Z" fill="white"/>
<path d="M6.10051 25.8995C4.14258 23.9416 2.80921 21.447 2.26901 18.7313C1.72882 16.0156 2.00607 13.2006 3.06569 10.6425C4.12532 8.0843 5.91973 5.8978 8.22202 4.3595C10.5243 2.8211 13.2311 2 16 2C18.7689 2 21.4757 2.8211 23.778 4.3595C26.0803 5.8978 27.8747 8.0843 28.9343 10.6425C29.9939 13.2006 30.2712 16.0156 29.731 18.7313C29.1908 21.447 27.8574 23.9416 25.8995 25.8995L16 16L6.10051 25.8995Z" fill="#0374A0" fill-opacity="0.04"/>
<path d="M16 10.25C16 12.9999 20.5 20.5 20.5 20.5C20.5 20.5 18 18.2499 16 18.2499C14 18.2499 11.5 20.5 11.5 20.5C11.5 20.5 16 12.9999 16 10.25Z" fill="#037AA8"/>
<path d="M16 10.25C16 12.9999 20.5 20.5 20.5 20.5C20.5 20.5 18 18.2499 16 18.2499C14 18.2499 11.5 20.5 11.5 20.5C11.5 20.5 16 12.9999 16 10.25Z" fill="url(#paint0_linear)" fill-opacity="0.32" style="mix-blend-mode:overlay"/>
<path d="M17 22C17 22.5523 16.5523 23 16 23C15.4477 23 15 22.5523 15 22C15 21.4477 15.4477 21 16 21C16.5523 21 17 21.4477 17 22Z" fill="#037AA8"/>
<path d="M17 22C17 22.5523 16.5523 23 16 23C15.4477 23 15 22.5523 15 22C15 21.4477 15.4477 21 16 21C16.5523 21 17 21.4477 17 22Z" fill="url(#paint1_linear)" fill-opacity="0.32" style="mix-blend-mode:overlay"/>
<defs>
<linearGradient id="paint0_linear" x1="16" y1="10.25" x2="16" y2="23" gradientUnits="userSpaceOnUse">
<stop stop-color="white"/>
<stop offset="1" stop-color="white" stop-opacity="0"/>
</linearGradient>
<linearGradient id="paint1_linear" x1="16" y1="10.25" x2="16" y2="23" gradientUnits="userSpaceOnUse">
<stop stop-color="white"/>
<stop offset="1" stop-color="white" stop-opacity="0"/>
</linearGradient>
</defs>
</svg>
