<svg width="12" height="12" viewBox="0 0 12 12" fill="none" xmlns="http://www.w3.org/2000/svg">
<path d="M3.03016 2.32301C2.83489 2.12774 2.51831 2.12774 2.32305 2.32301C2.12779 2.51827 2.12779 2.83485 2.32305 3.03011L5.24869 5.95576L2.27885 8.9256C2.08359 9.12087 2.08358 9.43745 2.27885 9.63271C2.47411 9.82797 2.79069 9.82797 2.98595 9.63271L5.9558 6.66286L8.96985 9.67692C9.16511 9.87218 9.4817 9.87218 9.67696 9.67692C9.87222 9.48165 9.87222 9.16507 9.67696 8.96981L6.66291 5.95576L9.63276 2.98591C9.82802 2.79065 9.82802 2.47406 9.63276 2.2788C9.43749 2.08354 9.12091 2.08354 8.92565 2.2788L5.9558 5.24865L3.03016 2.32301Z" fill="#037AA8"/>
<path d="M3.03016 2.32301C2.83489 2.12774 2.51831 2.12774 2.32305 2.32301C2.12779 2.51827 2.12779 2.83485 2.32305 3.03011L5.24869 5.95576L2.27885 8.9256C2.08359 9.12087 2.08358 9.43745 2.27885 9.63271C2.47411 9.82797 2.79069 9.82797 2.98595 9.63271L5.9558 6.66286L8.96985 9.67692C9.16511 9.87218 9.4817 9.87218 9.67696 9.67692C9.87222 9.48165 9.87222 9.16507 9.67696 8.96981L6.66291 5.95576L9.63276 2.98591C9.82802 2.79065 9.82802 2.47406 9.63276 2.2788C9.43749 2.08354 9.12091 2.08354 8.92565 2.2788L5.9558 5.24865L3.03016 2.32301Z" fill="url(#paint0_linear)" fill-opacity="0.32" style="mix-blend-mode:overlay"/>
<defs>
<linearGradient id="paint0_linear" x1="5.9779" y1="2.13235" x2="5.9779" y2="9.82336" gradientUnits="userSpaceOnUse">
<stop stop-color="white"/>
<stop offset="1" stop-color="white" stop-opacity="0"/>
</linearGradient>
</defs>
</svg>
