<svg width="12" height="12" viewBox="0 0 12 12" fill="none" xmlns="http://www.w3.org/2000/svg">
<g clip-path="url(#clip0)">
<path d="M2.95094 6.95275C2.85656 6.95275 2.7749 6.91826 2.70593 6.8493C2.63696 6.78033 2.60248 6.69866 2.60248 6.60429C2.60248 6.50266 2.63696 6.41917 2.70593 6.35384C2.7749 6.2885 2.85656 6.25583 2.95094 6.25583H6.92008C7.01083 6.25583 7.09068 6.2885 7.15965 6.35384C7.22861 6.41917 7.2631 6.50266 7.2631 6.60429C7.2631 6.69866 7.22861 6.78033 7.15965 6.8493C7.09068 6.91826 7.01083 6.95275 6.92008 6.95275H2.95094ZM2.95094 4.99812C2.85656 4.99812 2.7749 4.96455 2.70593 4.8974C2.63696 4.83024 2.60248 4.74767 2.60248 4.64966C2.60248 4.55529 2.63696 4.47453 2.70593 4.40738C2.7749 4.34023 2.85656 4.30665 2.95094 4.30665H9.04894C9.14332 4.30665 9.22499 4.34023 9.29395 4.40738C9.36292 4.47453 9.3974 4.55529 9.3974 4.64966C9.3974 4.74767 9.36292 4.83024 9.29395 4.8974C9.22499 4.96455 9.14332 4.99812 9.04894 4.99812H2.95094ZM2.95094 3.04894C2.85656 3.04894 2.7749 3.01536 2.70593 2.94821C2.63696 2.88106 2.60248 2.79667 2.60248 2.69503C2.60248 2.60429 2.63696 2.52534 2.70593 2.45819C2.7749 2.39104 2.85656 2.35747 2.95094 2.35747H9.04894C9.14332 2.35747 9.22499 2.39104 9.29395 2.45819C9.36292 2.52534 9.3974 2.60429 9.3974 2.69503C9.3974 2.79667 9.36292 2.88106 9.29395 2.94821C9.22499 3.01536 9.14332 3.04894 9.04894 3.04894H2.95094ZM3.23406 11.2976C3.34295 11.2976 3.44187 11.2694 3.5308 11.2132C3.61972 11.1569 3.72952 11.0689 3.86019 10.9491L5.82571 9.15238L9.50628 9.15782C10.0471 9.15782 10.5027 9.06073 10.8729 8.86654C11.2431 8.67234 11.5235 8.39013 11.7141 8.01989C11.9047 7.64966 11.9999 7.19775 11.9999 6.66418V2.49358C11.9999 1.96001 11.9047 1.5081 11.7141 1.13787C11.5235 0.767631 11.2431 0.485416 10.8729 0.291226C10.5027 0.097034 10.0471 -6.10352e-05 9.50628 -6.10352e-05H2.49357C1.95274 -6.10352e-05 1.4972 0.097034 1.12697 0.291226C0.75673 0.485417 0.476329 0.767631 0.285768 1.13787C0.095205 1.5081 -7.62939e-05 1.96001 -7.62939e-05 2.49358V6.66418C-7.62939e-05 7.19775 0.095205 7.64966 0.285768 8.01989C0.47633 8.39013 0.75673 8.67144 1.12697 8.86381C1.4972 9.05619 1.95274 9.15238 2.49357 9.15238H2.74947V10.7368C2.74947 10.9074 2.79121 11.0435 2.8747 11.1451C2.95818 11.2468 3.07797 11.2976 3.23405 11.2976L3.23406 11.2976Z" fill="#037AA8"/>
<path d="M2.95094 6.95275C2.85656 6.95275 2.7749 6.91826 2.70593 6.8493C2.63696 6.78033 2.60248 6.69866 2.60248 6.60429C2.60248 6.50266 2.63696 6.41917 2.70593 6.35384C2.7749 6.2885 2.85656 6.25583 2.95094 6.25583H6.92008C7.01083 6.25583 7.09068 6.2885 7.15965 6.35384C7.22861 6.41917 7.2631 6.50266 7.2631 6.60429C7.2631 6.69866 7.22861 6.78033 7.15965 6.8493C7.09068 6.91826 7.01083 6.95275 6.92008 6.95275H2.95094ZM2.95094 4.99812C2.85656 4.99812 2.7749 4.96455 2.70593 4.8974C2.63696 4.83024 2.60248 4.74767 2.60248 4.64966C2.60248 4.55529 2.63696 4.47453 2.70593 4.40738C2.7749 4.34023 2.85656 4.30665 2.95094 4.30665H9.04894C9.14332 4.30665 9.22499 4.34023 9.29395 4.40738C9.36292 4.47453 9.3974 4.55529 9.3974 4.64966C9.3974 4.74767 9.36292 4.83024 9.29395 4.8974C9.22499 4.96455 9.14332 4.99812 9.04894 4.99812H2.95094ZM2.95094 3.04894C2.85656 3.04894 2.7749 3.01536 2.70593 2.94821C2.63696 2.88106 2.60248 2.79667 2.60248 2.69503C2.60248 2.60429 2.63696 2.52534 2.70593 2.45819C2.7749 2.39104 2.85656 2.35747 2.95094 2.35747H9.04894C9.14332 2.35747 9.22499 2.39104 9.29395 2.45819C9.36292 2.52534 9.3974 2.60429 9.3974 2.69503C9.3974 2.79667 9.36292 2.88106 9.29395 2.94821C9.22499 3.01536 9.14332 3.04894 9.04894 3.04894H2.95094ZM3.23406 11.2976C3.34295 11.2976 3.44187 11.2694 3.5308 11.2132C3.61972 11.1569 3.72952 11.0689 3.86019 10.9491L5.82571 9.15238L9.50628 9.15782C10.0471 9.15782 10.5027 9.06073 10.8729 8.86654C11.2431 8.67234 11.5235 8.39013 11.7141 8.01989C11.9047 7.64966 11.9999 7.19775 11.9999 6.66418V2.49358C11.9999 1.96001 11.9047 1.5081 11.7141 1.13787C11.5235 0.767631 11.2431 0.485416 10.8729 0.291226C10.5027 0.097034 10.0471 -6.10352e-05 9.50628 -6.10352e-05H2.49357C1.95274 -6.10352e-05 1.4972 0.097034 1.12697 0.291226C0.75673 0.485417 0.476329 0.767631 0.285768 1.13787C0.095205 1.5081 -7.62939e-05 1.96001 -7.62939e-05 2.49358V6.66418C-7.62939e-05 7.19775 0.095205 7.64966 0.285768 8.01989C0.47633 8.39013 0.75673 8.67144 1.12697 8.86381C1.4972 9.05619 1.95274 9.15238 2.49357 9.15238H2.74947V10.7368C2.74947 10.9074 2.79121 11.0435 2.8747 11.1451C2.95818 11.2468 3.07797 11.2976 3.23405 11.2976L3.23406 11.2976Z" fill="url(#paint0_linear)" fill-opacity="0.32" style="mix-blend-mode:overlay"/>
</g>
<defs>
<linearGradient id="paint0_linear" x1="5.99993" y1="-6.10352e-05" x2="5.99993" y2="11.2976" gradientUnits="userSpaceOnUse">
<stop stop-color="white"/>
<stop offset="1" stop-color="white" stop-opacity="0"/>
</linearGradient>
<clipPath id="clip0">
<rect width="12" height="12" fill="white"/>
</clipPath>
</defs>
</svg>
