<svg width="48" height="48" viewBox="0 0 48 48" fill="none" xmlns="http://www.w3.org/2000/svg">
<circle cx="24" cy="24" r="23.1" stroke="#05D70C" stroke-width="1.8"/>
<circle cx="24" cy="24" r="23.1" stroke="url(#paint0_linear)" stroke-opacity="0.32" stroke-width="1.8" style="mix-blend-mode:overlay"/>
<path d="M13.8 26.9956C13.8 27.9225 13.9727 28.7727 14.3181 29.5462C14.6635 30.3196 15.1388 30.938 15.7439 31.4015C16.3491 31.865 17.0384 32.0967 17.8118 32.0967H19.4502C18.6236 31.4827 18.0155 30.7284 17.6258 29.834C17.2362 28.9395 17.0502 27.9639 17.0679 26.907C17.0797 26.1277 17.1757 25.4222 17.3557 24.7904C17.5358 24.1587 17.7602 23.5978 18.0288 23.1078C18.2974 22.6177 18.5705 22.2045 18.848 21.8679H17.4664C16.7697 21.8679 16.1454 22.0952 15.5934 22.5498C15.0413 23.0045 14.6044 23.62 14.2827 24.3963C13.9609 25.1727 13.8 26.0391 13.8 26.9956L13.8 26.9956ZM29.3513 32.7786C29.7056 32.696 30.0347 32.5321 30.3388 32.2871C30.6428 32.0421 30.7949 31.6982 30.7949 31.2554C30.7949 31.0783 30.7727 30.9233 30.7284 30.7904C30.6842 30.6576 30.6325 30.538 30.5735 30.4318C30.4967 30.3078 30.5115 30.2222 30.6177 30.1749C30.907 30.0451 31.158 29.8517 31.3705 29.5949C31.5831 29.338 31.6893 29.0207 31.6893 28.6428C31.6893 28.2118 31.5801 27.8576 31.3617 27.5801C31.2554 27.4443 31.2849 27.3292 31.4502 27.2347C31.6628 27.1107 31.834 26.9248 31.9639 26.6768C32.0938 26.4288 32.1587 26.1513 32.1587 25.8443C32.1587 25.6259 32.1233 25.4118 32.0524 25.2022C31.9816 24.9927 31.8842 24.8288 31.7602 24.7107C31.6362 24.6045 31.6539 24.4893 31.8133 24.3653C32.1203 24.1233 32.2738 23.7218 32.2738 23.1609C32.2738 22.7122 32.1189 22.327 31.8089 22.0052C31.4989 21.6834 31.1137 21.5225 30.6532 21.5225H27.3498C26.9307 21.5225 26.5927 21.4207 26.3358 21.217C26.079 21.0133 25.9506 20.7403 25.9506 20.3978C25.9506 20.079 26.0303 19.707 26.1897 19.282C26.3491 18.8569 26.5321 18.4067 26.7388 17.9314C26.9454 17.4561 27.1284 16.9808 27.2879 16.5056C27.4473 16.0303 27.527 15.586 27.527 15.1727C27.527 14.7417 27.403 14.4052 27.155 14.1631C26.907 13.9211 26.6 13.8 26.234 13.8C25.8974 13.8 25.6303 13.9063 25.4325 14.1189C25.2347 14.3314 25.0473 14.6118 24.8701 14.9602C24.4096 15.8694 23.9078 16.7211 23.3646 17.5152C22.8214 18.3093 22.2768 19.0576 21.7306 19.7602C21.1845 20.4628 20.6753 21.127 20.203 21.7528C19.8015 22.2901 19.4679 22.8126 19.2022 23.3203C18.9366 23.8281 18.7358 24.3713 18.6 24.9498C18.4642 25.5284 18.3904 26.1897 18.3786 26.9336C18.3668 27.7838 18.5233 28.5749 18.848 29.307C19.1727 30.0391 19.645 30.6797 20.265 31.2288C20.8849 31.7779 21.6318 32.2059 22.5056 32.5129C23.3794 32.82 24.3594 32.9764 25.4458 32.9823L26.7299 33C27.338 33 27.862 32.9808 28.3019 32.9425C28.7417 32.9041 29.0915 32.8495 29.3513 32.7786V32.7786Z" fill="#05D70C"/>
<path d="M13.8 26.9956C13.8 27.9225 13.9727 28.7727 14.3181 29.5462C14.6635 30.3196 15.1388 30.938 15.7439 31.4015C16.3491 31.865 17.0384 32.0967 17.8118 32.0967H19.4502C18.6236 31.4827 18.0155 30.7284 17.6258 29.834C17.2362 28.9395 17.0502 27.9639 17.0679 26.907C17.0797 26.1277 17.1757 25.4222 17.3557 24.7904C17.5358 24.1587 17.7602 23.5978 18.0288 23.1078C18.2974 22.6177 18.5705 22.2045 18.848 21.8679H17.4664C16.7697 21.8679 16.1454 22.0952 15.5934 22.5498C15.0413 23.0045 14.6044 23.62 14.2827 24.3963C13.9609 25.1727 13.8 26.0391 13.8 26.9956L13.8 26.9956ZM29.3513 32.7786C29.7056 32.696 30.0347 32.5321 30.3388 32.2871C30.6428 32.0421 30.7949 31.6982 30.7949 31.2554C30.7949 31.0783 30.7727 30.9233 30.7284 30.7904C30.6842 30.6576 30.6325 30.538 30.5735 30.4318C30.4967 30.3078 30.5115 30.2222 30.6177 30.1749C30.907 30.0451 31.158 29.8517 31.3705 29.5949C31.5831 29.338 31.6893 29.0207 31.6893 28.6428C31.6893 28.2118 31.5801 27.8576 31.3617 27.5801C31.2554 27.4443 31.2849 27.3292 31.4502 27.2347C31.6628 27.1107 31.834 26.9248 31.9639 26.6768C32.0938 26.4288 32.1587 26.1513 32.1587 25.8443C32.1587 25.6259 32.1233 25.4118 32.0524 25.2022C31.9816 24.9927 31.8842 24.8288 31.7602 24.7107C31.6362 24.6045 31.6539 24.4893 31.8133 24.3653C32.1203 24.1233 32.2738 23.7218 32.2738 23.1609C32.2738 22.7122 32.1189 22.327 31.8089 22.0052C31.4989 21.6834 31.1137 21.5225 30.6532 21.5225H27.3498C26.9307 21.5225 26.5927 21.4207 26.3358 21.217C26.079 21.0133 25.9506 20.7403 25.9506 20.3978C25.9506 20.079 26.0303 19.707 26.1897 19.282C26.3491 18.8569 26.5321 18.4067 26.7388 17.9314C26.9454 17.4561 27.1284 16.9808 27.2879 16.5056C27.4473 16.0303 27.527 15.586 27.527 15.1727C27.527 14.7417 27.403 14.4052 27.155 14.1631C26.907 13.9211 26.6 13.8 26.234 13.8C25.8974 13.8 25.6303 13.9063 25.4325 14.1189C25.2347 14.3314 25.0473 14.6118 24.8701 14.9602C24.4096 15.8694 23.9078 16.7211 23.3646 17.5152C22.8214 18.3093 22.2768 19.0576 21.7306 19.7602C21.1845 20.4628 20.6753 21.127 20.203 21.7528C19.8015 22.2901 19.4679 22.8126 19.2022 23.3203C18.9366 23.8281 18.7358 24.3713 18.6 24.9498C18.4642 25.5284 18.3904 26.1897 18.3786 26.9336C18.3668 27.7838 18.5233 28.5749 18.848 29.307C19.1727 30.0391 19.645 30.6797 20.265 31.2288C20.8849 31.7779 21.6318 32.2059 22.5056 32.5129C23.3794 32.82 24.3594 32.9764 25.4458 32.9823L26.7299 33C27.338 33 27.862 32.9808 28.3019 32.9425C28.7417 32.9041 29.0915 32.8495 29.3513 32.7786V32.7786Z" fill="url(#paint1_linear)" fill-opacity="0.32" style="mix-blend-mode:overlay"/>
<defs>
<linearGradient id="paint0_linear" x1="24" y1="0" x2="24" y2="48" gradientUnits="userSpaceOnUse">
<stop stop-color="white"/>
<stop offset="1" stop-color="white" stop-opacity="0"/>
</linearGradient>
<linearGradient id="paint1_linear" x1="23.0369" y1="13.8" x2="23.0369" y2="33" gradientUnits="userSpaceOnUse">
<stop stop-color="white"/>
<stop offset="1" stop-color="white" stop-opacity="0"/>
</linearGradient>
</defs>
</svg>
